<svg width="175" height="178" viewBox="0 0 175 178" xmlns="http://www.w3.org/2000/svg" xmlns:xlink="http://www.w3.org/1999/xlink" fill="none" overflow="hidden"><mask maskUnits="userSpaceOnUse" x="6" y="0" width="162" height="162" id="mask0_2_26"><rect x="6" y="0" rx="23" width="162" height="162" fill="#FFBF00"/></mask><rect x="0" y="0" rx="33" width="175" height="178" fill="#D01E34"/><rect x="6" y="0" rx="23" width="162" height="162" fill="#FF204E"/><rect x="14" y="8" rx="23" width="146" height="146" fill="#D01E34"/><rect x="17" y="9" rx="23" width="140" height="140" fill="#FF204E"/><path d="M147.664 22.8944 144.673 19.041C143.695 17.7812 142.266 16.9506 140.688 16.7246 137.754 16.3047 134.738 18.0995 135.075 21.0437 135.517 24.9043 137.866 28.3548 140.703 31.1249 144.071 34.4137 149 31.5013 149 26.794 149 25.3819 148.53 24.0099 147.664 22.8944Z" fill="#D9D9D9"/><path d="M111.752 114.349C114.485 117.083 118.917 117.083 121.651 114.349L123.349 112.651C126.083 109.917 126.083 105.485 123.349 102.752L101.926 81.329C100.364 79.7669 100.364 77.2342 101.926 75.6721L123.349 54.2495C126.083 51.5159 126.083 47.0837 123.349 44.3501L121.651 42.6521C118.917 39.9184 114.485 39.9184 111.751 42.6521L90.3289 64.0747C88.7668 65.6368 86.2342 65.6368 84.6721 64.0747L63.2495 42.6521C60.5159 39.9184 56.0837 39.9184 53.35 42.6521L51.6521 44.3501C48.9184 47.0837 48.9184 51.5159 51.6521 54.2496L73.0746 75.6721C74.6367 77.2342 74.6367 79.7669 73.0746 81.329L51.6521 102.752C48.9184 105.485 48.9184 109.917 51.6521 112.651L53.35 114.349C56.0837 117.083 60.5158 117.083 63.2495 114.349L84.6721 92.9264C86.2342 91.3643 88.7668 91.3643 90.3289 92.9264L111.752 114.349Z" fill="#C01135" fill-rule="evenodd" clip-rule="evenodd"/><g mask="url(#mask0_2_26)"><g opacity="0.35"><path d="M-29.6749 105.04 122.242-17.1727C125.261-19.6011 129.193-20.5842 132.999-19.8623 143.111-17.9444 147.256-5.72082 140.395 1.95169L10.4323 147.295C-1.75207 160.921-23.3141 160.145-34.4869 145.677-44.2149 133.081-42.0758 115.016-29.6749 105.04Z" fill="#FFFFFF"/><path d="M26.5206 162.219 174.021-12.5629C175.593-14.4254 177.906-15.5 180.343-15.5 187.181-15.5 191.066-7.67634 186.934-2.22865L48.7287 179.991C43.9295 186.319 34.8792 187.492 28.6251 182.598 22.2753 177.629 21.3203 168.381 26.5206 162.219Z" fill="#FFFFFF"/></g></g></svg>